<?xml version="1.0" encoding="UTF-8" standalone="no"?><!-- Generator: Gravit.io --><svg xmlns="http://www.w3.org/2000/svg" xmlns:xlink="http://www.w3.org/1999/xlink" style="isolation:isolate" viewBox="319.038 644.04 79.963 93" width="79.963pt" height="93pt"><path d=" M 398.986 660.219 C 398.977 655.579 396.373 653.245 391.771 653.366 C 390.208 653.403 389.864 654.016 389.902 655.402 C 389.967 657.745 390.004 660.098 389.883 662.441 C 389.697 666.235 387.447 668.597 383.69 668.894 C 381.7 669.053 379.682 669.043 377.702 668.904 C 373.666 668.625 371.406 666.179 371.313 662.125 C 371.267 659.865 371.239 657.606 371.323 655.346 C 371.378 653.896 370.886 653.375 369.398 653.384 C 362.442 653.449 355.487 653.449 348.541 653.384 C 346.96 653.366 346.653 654.044 346.699 655.411 C 346.774 657.755 346.765 660.107 346.709 662.45 C 346.625 665.993 344.579 668.402 341.064 668.801 C 338.916 669.053 336.722 669.034 334.555 668.904 C 330.603 668.671 328.4 666.328 328.26 662.348 C 328.186 660.005 328.176 657.652 328.26 655.309 C 328.316 653.83 327.739 653.403 326.289 653.375 C 321.556 653.273 319.045 655.644 319.045 660.479 C 319.036 683.605 319.036 706.722 319.045 729.848 C 319.045 734.832 321.193 737.017 326.168 737.026 C 348.076 737.045 369.974 737.045 391.882 737.026 C 396.894 737.026 398.986 734.888 398.986 729.857 C 399.005 718.299 398.986 706.731 398.986 695.173 C 398.996 683.512 399.014 671.861 398.986 660.219 Z  M 328.148 676.659 C 328.139 675.45 328.66 674.967 329.869 674.967 C 334.983 674.994 340.097 674.994 345.202 674.976 C 346.3 674.976 346.727 675.431 346.718 676.538 C 346.681 680.695 346.672 684.86 346.727 689.017 C 346.746 690.393 346.002 690.551 344.923 690.542 C 342.413 690.514 339.902 690.533 337.382 690.533 C 334.871 690.533 332.352 690.495 329.841 690.551 C 328.623 690.579 328.13 690.114 328.139 688.887 C 328.186 684.805 328.176 680.732 328.148 676.659 Z  M 346.737 726.035 C 346.755 727.365 346.318 727.895 344.961 727.876 C 340.023 727.83 335.085 727.83 330.148 727.876 C 328.706 727.895 328.121 727.393 328.139 725.924 C 328.195 721.935 328.186 717.955 328.148 713.965 C 328.139 712.747 328.623 712.264 329.841 712.292 C 332.352 712.348 334.862 712.31 337.382 712.31 C 339.893 712.31 342.413 712.357 344.923 712.292 C 346.244 712.255 346.765 712.701 346.746 714.077 C 346.672 718.066 346.681 722.055 346.737 726.035 Z  M 344.635 709.251 C 342.208 709.149 339.772 709.223 337.336 709.223 C 334.992 709.223 332.64 709.149 330.296 709.251 C 328.771 709.316 328.093 708.898 328.13 707.233 C 328.214 703.328 328.204 699.413 328.139 695.498 C 328.111 693.992 328.725 693.573 330.148 693.592 C 335.011 693.657 339.884 693.685 344.747 693.583 C 346.439 693.545 346.774 694.234 346.746 695.731 C 346.672 699.552 346.644 703.384 346.755 707.205 C 346.792 708.86 346.179 709.316 344.635 709.251 Z  M 351.535 674.976 C 356.491 675.004 361.447 675.013 366.404 674.967 C 367.743 674.957 368.254 675.45 368.235 676.798 C 368.18 680.797 368.17 684.795 368.235 688.794 C 368.254 690.216 367.622 690.57 366.348 690.542 C 363.828 690.486 361.308 690.523 358.788 690.523 C 356.352 690.523 353.915 690.486 351.488 690.542 C 350.261 690.57 349.805 690.105 349.815 688.868 C 349.861 684.786 349.861 680.695 349.815 676.612 C 349.796 675.329 350.363 674.967 351.535 674.976 Z  M 349.805 695.424 C 349.787 694.103 350.205 693.583 351.591 693.601 C 356.538 693.666 361.485 693.657 366.441 693.601 C 367.817 693.583 368.254 694.113 368.235 695.433 C 368.189 699.422 368.189 703.421 368.235 707.419 C 368.254 708.749 367.798 709.279 366.431 709.242 C 363.911 709.167 361.401 709.223 358.881 709.223 C 356.538 709.223 354.194 709.177 351.851 709.242 C 350.493 709.288 349.768 709 349.805 707.41 C 349.889 703.421 349.861 699.422 349.805 695.424 Z  M 368.254 725.794 C 368.291 727.393 367.705 727.914 366.134 727.895 C 361.354 727.821 356.575 727.839 351.786 727.886 C 350.363 727.904 349.759 727.486 349.796 725.961 C 349.88 722.046 349.88 718.141 349.796 714.226 C 349.768 712.738 350.298 712.236 351.749 712.292 C 354.176 712.375 356.612 712.32 359.048 712.32 C 361.392 712.32 363.744 712.385 366.087 712.292 C 367.612 712.236 368.282 712.664 368.245 714.319 C 368.152 718.141 368.161 721.972 368.254 725.794 Z  M 371.285 676.817 C 371.267 675.487 371.732 674.948 373.089 674.967 C 378.036 675.013 382.974 675.013 387.921 674.967 C 389.316 674.957 389.976 675.385 389.948 676.901 C 389.883 680.89 389.902 684.879 389.939 688.868 C 389.948 690.096 389.474 690.57 388.246 690.542 C 385.643 690.495 383.039 690.523 380.445 690.523 C 378.101 690.523 375.758 690.458 373.424 690.551 C 371.908 690.607 371.239 690.179 371.285 688.524 C 371.369 684.628 371.341 680.722 371.285 676.817 Z  M 389.929 726.203 C 389.939 727.458 389.344 727.867 388.181 727.867 C 383.067 727.849 377.943 727.849 372.829 727.867 C 371.732 727.867 371.285 727.393 371.295 726.296 C 371.323 722.13 371.332 717.973 371.295 713.807 C 371.285 712.422 372.094 712.301 373.145 712.31 C 375.656 712.329 378.176 712.32 380.686 712.32 C 383.197 712.32 385.717 712.357 388.228 712.31 C 389.446 712.282 389.939 712.747 389.92 713.984 C 389.892 718.048 389.892 722.13 389.929 726.203 Z  M 387.781 709.242 C 385.354 709.149 382.927 709.214 380.5 709.214 C 377.99 709.214 375.47 709.167 372.959 709.223 C 371.732 709.251 371.267 708.777 371.285 707.549 C 371.323 703.477 371.341 699.404 371.276 695.331 C 371.258 693.908 371.89 693.583 373.164 693.592 C 378.101 693.638 383.039 693.648 387.977 693.583 C 389.446 693.564 389.967 694.066 389.939 695.526 C 389.874 699.422 389.855 703.328 389.948 707.224 C 389.994 708.916 389.278 709.298 387.781 709.242 Z  M 337.828 665.733 C 340.981 665.519 343.426 663.008 343.584 659.735 C 343.659 658.089 343.594 656.434 343.594 654.788 C 343.594 653.226 343.649 651.664 343.584 650.102 C 343.436 646.791 341.046 644.299 337.884 644.057 C 334.751 643.825 331.914 645.982 331.487 649.283 C 331.003 652.984 331.022 656.75 331.477 660.451 C 331.877 663.752 334.704 665.937 337.828 665.733 Z  M 380.417 665.742 C 383.802 665.872 386.535 663.231 386.777 659.503 C 386.87 658.033 386.796 656.555 386.796 655.076 L 386.786 655.076 C 386.786 653.431 386.889 651.766 386.768 650.13 C 386.498 646.559 383.811 644.002 380.519 644.048 C 377.218 644.095 374.568 646.717 374.438 650.288 C 374.326 653.319 374.335 656.369 374.438 659.4 C 374.549 663.008 377.079 665.612 380.417 665.742 Z " fill="rgb(239,99,98)"/></svg>