<?xml version="1.0" encoding="UTF-8" standalone="no"?><!-- Generator: Gravit.io --><svg xmlns="http://www.w3.org/2000/svg" xmlns:xlink="http://www.w3.org/1999/xlink" style="isolation:isolate" viewBox="45.981 379.105 101.414 92.96" width="101.414pt" height="92.96pt"><g><path d=" M 92.461 472.065 C 66.834 472.065 45.981 451.213 45.981 425.586 C 45.981 399.958 66.834 379.105 92.461 379.105 C 101.373 379.105 110.043 381.645 117.535 386.453 C 119.005 387.4 119.436 389.361 118.489 390.835 C 117.539 392.31 115.583 392.736 114.108 391.79 C 107.643 387.636 100.156 385.444 92.461 385.444 C 70.328 385.444 52.319 403.452 52.319 425.586 C 52.319 447.718 70.328 465.727 92.461 465.727 C 114.594 465.727 132.602 447.718 132.602 425.586 C 132.602 424.263 132.539 422.953 132.417 421.664 C 132.248 419.919 133.524 418.372 135.265 418.204 C 137.014 418.043 138.556 419.311 138.726 421.052 C 138.869 422.543 138.941 424.056 138.941 425.586 C 138.941 451.213 118.089 472.065 92.461 472.065 L 92.461 472.065 Z " fill="rgb(239,99,98)"/><path d=" M 97.742 436.149 C 96.932 436.149 96.12 435.84 95.503 435.22 L 76.489 416.205 C 75.251 414.967 75.251 412.96 76.489 411.722 C 77.727 410.484 79.734 410.484 80.972 411.722 L 97.747 428.497 L 141.983 384.261 C 143.222 383.023 145.229 383.023 146.466 384.261 C 147.704 385.498 147.704 387.505 146.466 388.743 L 99.986 435.224 C 99.365 435.84 98.554 436.149 97.742 436.149 L 97.742 436.149 Z " fill="rgb(239,99,98)"/></g></svg>