<?xml version="1.0" encoding="UTF-8" standalone="no"?><!-- Generator: Gravit.io --><svg xmlns="http://www.w3.org/2000/svg" xmlns:xlink="http://www.w3.org/1999/xlink" style="isolation:isolate" viewBox="50.2 46 92.976 92.96" width="92.976pt" height="92.96pt"><g><path d=" M 93.17 46 L 55.137 84.033 L 105.143 134.039 L 143.176 96.006 L 93.17 46 Z  M 91.674 82.537 L 60.866 82.537 L 91.674 51.729 L 91.674 82.537 Z  M 91.674 85.53 L 91.674 87.026 C 91.674 92.803 96.374 97.502 102.15 97.502 L 103.646 97.502 L 103.646 128.31 L 60.866 85.53 L 91.674 85.53 Z  M 106.639 97.502 L 137.447 97.502 L 106.639 128.31 L 106.639 97.502 Z  M 102.15 94.509 C 98.024 94.509 94.667 91.152 94.667 87.026 L 94.667 51.729 L 137.447 94.509 L 102.15 94.509 Z " fill="rgb(239,99,98)"/><path d=" M 58.309 133.224 L 78.631 112.902 L 80.748 115.018 L 60.425 135.34 L 58.309 133.224 Z " fill="rgb(239,99,98)"/><path d=" M 54.688 136.841 L 56.57 134.959 L 58.686 137.075 L 56.804 138.958 L 54.688 136.841 Z " fill="rgb(239,99,98)"/><path d=" M 50.2 132.354 L 74.141 108.413 L 76.257 110.529 L 52.316 134.47 L 50.2 132.354 Z " fill="rgb(239,99,98)"/><path d=" M 72.646 136.844 L 87.609 121.88 L 89.726 123.997 L 74.763 138.96 L 72.646 136.844 Z " fill="rgb(239,99,98)"/><path d=" M 68.155 132.354 L 70.046 130.463 L 72.162 132.58 L 70.272 134.47 L 68.155 132.354 Z " fill="rgb(239,99,98)"/><path d=" M 71.886 128.625 L 83.12 117.391 L 85.236 119.507 L 74.002 130.741 L 71.886 128.625 Z " fill="rgb(239,99,98)"/><path d=" M 54.691 118.885 L 69.654 103.922 L 71.77 106.038 L 56.807 121.001 L 54.691 118.885 Z " fill="rgb(239,99,98)"/><path d=" M 50.203 114.395 L 65.166 99.432 L 67.282 101.548 L 52.319 116.511 L 50.203 114.395 Z " fill="rgb(239,99,98)"/><path d=" M 96.595 61.151 L 98.711 59.035 L 101.703 62.028 L 99.587 64.144 L 96.595 61.151 Z " fill="rgb(239,99,98)"/><path d=" M 108.564 73.125 L 110.68 71.009 L 127.139 87.468 L 125.023 89.584 L 108.564 73.125 Z " fill="rgb(239,99,98)"/><path d=" M 102.58 67.138 L 104.696 65.022 L 107.688 68.014 L 105.572 70.13 L 102.58 67.138 Z " fill="rgb(239,99,98)"/><path d=" M 108.56 118.89 L 111.552 115.898 L 113.668 118.014 L 110.676 121.006 L 108.56 118.89 Z " fill="rgb(239,99,98)"/><path d=" M 114.546 112.906 L 117.538 109.913 L 119.654 112.029 L 116.662 115.022 L 114.546 112.906 Z " fill="rgb(239,99,98)"/><path d=" M 120.532 106.921 L 123.524 103.929 L 125.64 106.045 L 122.648 109.037 L 120.532 106.921 Z " fill="rgb(239,99,98)"/></g></svg>