<?xml version="1.0" encoding="UTF-8" standalone="no"?><!-- Generator: Gravit.io --><svg xmlns="http://www.w3.org/2000/svg" xmlns:xlink="http://www.w3.org/1999/xlink" style="isolation:isolate" viewBox="188.898 211.778 92.96 92.96" width="92.96pt" height="92.96pt"><path d=" M 276.726 211.778 L 194.025 211.778 C 191.193 211.78 188.897 214.076 188.898 216.909 L 188.898 299.611 C 188.9 302.443 191.196 304.738 194.029 304.738 L 238.555 304.738 L 238.555 268.788 L 226.481 268.788 L 226.481 254.717 L 238.555 254.717 L 238.555 244.362 C 238.555 232.354 245.886 225.817 256.598 225.817 C 261.729 225.817 266.138 226.2 267.423 226.37 L 267.423 238.922 L 260.037 238.922 C 254.209 238.922 253.08 241.691 253.08 245.756 L 253.08 254.717 L 267.015 254.717 L 265.199 268.788 L 253.08 268.788 L 253.08 304.738 L 276.726 304.738 C 279.56 304.738 281.857 302.442 281.858 299.609 C 281.858 299.608 281.858 299.607 281.858 299.606 L 281.858 216.905 C 281.856 214.073 279.559 211.777 276.726 211.778 Z " fill="rgb(251,173,49)"/></svg>