<?xml version="1.0" encoding="UTF-8" standalone="no"?><!-- Generator: Gravit.io --><svg xmlns="http://www.w3.org/2000/svg" xmlns:xlink="http://www.w3.org/1999/xlink" style="isolation:isolate" viewBox="54.436 644.04 92.959 92.96" width="92.959pt" height="92.96pt"><g><path d=" M 146.863 716.459 L 137.991 707.591 C 137.473 702.952 136.093 698.543 133.881 694.477 C 133.402 693.596 132.299 693.271 131.419 693.75 C 130.538 694.229 130.212 695.332 130.691 696.213 C 132.079 698.763 133.102 701.465 133.753 704.284 C 127.926 700.026 125.317 698.799 123.274 699.775 C 121.169 700.779 121.085 703.609 121.017 705.882 L 120.657 717.836 L 120.297 726.063 C 120.271 726.659 120.012 727.213 119.567 727.621 C 119.123 728.029 118.55 728.24 117.955 728.214 C 116.715 728.159 115.75 727.106 115.804 725.866 L 115.929 723.008 C 115.93 722.99 115.932 722.972 115.933 722.953 C 115.933 722.944 115.932 722.935 115.933 722.926 L 116.164 717.627 C 116.208 716.625 115.431 715.777 114.43 715.733 C 113.43 715.686 112.58 716.466 112.536 717.468 L 112.302 722.821 C 112.234 724.048 111.195 724.999 109.957 724.946 C 108.717 724.891 107.752 723.838 107.806 722.598 L 107.931 719.74 C 107.932 719.722 107.934 719.703 107.935 719.685 C 107.935 719.676 107.934 719.667 107.935 719.658 L 108.166 714.359 C 108.21 713.357 107.433 712.509 106.432 712.466 C 105.434 712.418 104.582 713.198 104.538 714.2 L 104.304 719.554 C 104.272 720.138 104.014 720.68 103.576 721.081 C 103.13 721.489 102.557 721.697 101.96 721.673 C 101.363 721.647 100.809 721.387 100.401 720.942 C 99.993 720.497 99.782 719.925 99.808 719.33 L 99.934 716.456 C 99.935 716.442 99.936 716.427 99.937 716.412 C 99.937 716.405 99.937 716.398 99.937 716.39 L 100.168 711.085 C 100.212 710.083 99.436 709.236 98.434 709.192 C 97.425 709.146 96.584 709.925 96.541 710.927 L 96.307 716.275 C 96.241 717.505 95.191 718.457 93.962 718.404 C 93.367 718.378 92.815 718.119 92.407 717.673 C 92 717.228 91.79 716.654 91.816 716.054 L 91.939 713.135 L 92.176 707.816 C 92.255 705.978 92.065 704.09 91.614 702.183 C 92.593 701.642 93.4 700.831 93.944 699.818 C 94.69 698.432 94.852 696.842 94.4 695.339 C 93.697 693.017 91.677 691.444 89.404 691.191 C 89.581 690.272 89.536 689.319 89.26 688.4 C 88.809 686.9 87.797 685.663 86.41 684.918 C 85.732 684.553 85.004 684.329 84.263 684.247 C 84.435 683.347 84.4 682.394 84.119 681.457 C 83.668 679.957 82.656 678.721 81.269 677.975 C 80.591 677.611 79.864 677.387 79.123 677.305 C 79.296 676.402 79.261 675.447 78.977 674.509 C 78.526 673.009 77.514 671.773 76.126 671.029 C 74.74 670.286 73.151 670.125 71.651 670.576 L 67.382 671.861 L 58.818 663.293 L 73.688 648.423 L 79.465 654.197 C 78.002 655.012 76.841 656.373 76.322 658.101 C 75.815 659.8 76.001 661.599 76.847 663.167 C 77.694 664.736 79.096 665.879 80.793 666.385 L 91.247 669.52 C 93.749 670.269 93.749 670.269 95.34 671.875 C 95.535 672.072 95.751 672.289 95.99 672.528 L 100.373 676.911 C 102.205 678.749 104.503 680.713 108.599 680.759 C 112.349 680.807 116.61 682.326 120.596 685.036 C 120.909 685.248 121.264 685.35 121.615 685.35 C 122.196 685.35 122.767 685.072 123.119 684.555 C 123.682 683.726 123.467 682.597 122.638 682.033 C 120.5 680.579 118.274 679.429 116.055 678.606 L 104.39 662.832 C 104.143 662.497 103.923 662.184 103.71 661.881 C 102.45 660.092 101.455 658.679 98.361 657.751 L 84.616 653.634 C 84.364 653.558 84.111 653.5 83.858 653.455 L 74.971 644.572 C 74.262 643.863 73.113 643.863 72.404 644.572 L 54.967 662.009 C 54.259 662.718 54.258 663.867 54.967 664.576 L 63.443 673.056 C 62.082 673.55 60.963 674.517 60.27 675.809 C 59.525 677.197 59.366 678.788 59.819 680.284 C 60.269 681.784 61.282 683.02 62.67 683.764 C 63.347 684.127 64.073 684.349 64.813 684.431 C 64.636 685.352 64.682 686.307 64.96 687.226 C 65.411 688.728 66.424 689.964 67.812 690.709 C 68.489 691.072 69.215 691.294 69.954 691.376 C 69.781 692.278 69.815 693.233 70.097 694.173 C 70.802 696.498 72.823 698.066 75.094 698.315 C 74.916 699.236 74.961 700.191 75.238 701.112 C 75.688 702.612 76.701 703.848 78.087 704.594 C 78.959 705.063 79.911 705.301 80.871 705.301 C 81.438 705.301 82.008 705.218 82.565 705.05 L 88.157 703.363 C 88.475 704.826 88.609 706.265 88.549 707.657 L 88.312 712.978 L 88.188 715.898 C 88.12 717.462 88.667 718.963 89.728 720.124 C 90.791 721.286 92.238 721.964 93.803 722.032 C 93.89 722.036 93.977 722.038 94.063 722.038 C 94.948 722.038 95.79 721.84 96.548 721.485 C 96.81 722.182 97.206 722.83 97.726 723.397 C 98.789 724.556 100.236 725.232 101.801 725.3 C 101.888 725.304 101.975 725.306 102.062 725.306 C 102.931 725.306 103.773 725.115 104.544 724.753 C 105.347 726.896 107.371 728.467 109.798 728.573 C 109.886 728.577 109.972 728.579 110.059 728.579 C 110.943 728.579 111.786 728.381 112.544 728.026 C 113.348 730.167 115.371 731.735 117.796 731.841 C 117.884 731.845 117.971 731.847 118.057 731.847 C 119.209 731.847 120.316 731.511 121.269 730.883 L 126.854 736.468 C 127.208 736.823 127.673 737 128.138 737 C 128.602 737 129.067 736.823 129.422 736.468 L 146.863 719.027 C 147.204 718.686 147.395 718.224 147.395 717.742 C 147.395 717.261 147.204 716.799 146.863 716.459 L 146.863 716.459 Z  M 79.801 659.142 C 80.033 658.371 80.554 657.735 81.269 657.349 C 81.984 656.964 82.802 656.879 83.573 657.111 L 97.318 661.228 C 99.209 661.796 99.626 662.388 100.741 663.971 C 100.955 664.276 101.199 664.621 101.471 664.989 L 110.538 677.252 C 109.899 677.18 109.267 677.136 108.646 677.128 C 108.646 677.128 108.645 677.128 108.645 677.128 C 108.644 677.128 108.643 677.127 108.642 677.127 C 106.157 677.1 104.722 676.129 102.943 674.345 L 98.557 669.958 C 98.322 669.724 98.111 669.511 97.92 669.318 C 95.931 667.31 95.489 666.998 92.289 666.041 L 81.834 662.906 C 81.065 662.676 80.429 662.156 80.044 661.442 C 79.658 660.727 79.572 659.909 79.801 659.142 L 79.801 659.142 Z  M 66.099 680.74 C 65.527 680.912 64.918 680.849 64.386 680.564 C 63.854 680.279 63.467 679.808 63.295 679.235 C 63.122 678.665 63.184 678.058 63.47 677.525 C 63.756 676.992 64.229 676.603 64.798 676.431 L 72.697 674.053 C 72.909 673.989 73.126 673.958 73.342 673.958 C 73.709 673.958 74.075 674.049 74.411 674.229 C 74.942 674.514 75.329 674.985 75.501 675.558 C 75.861 676.744 75.185 678.003 73.995 678.363 L 66.099 680.74 Z  M 71.237 687.684 C 70.667 687.856 70.06 687.794 69.528 687.509 C 68.996 687.224 68.609 686.752 68.436 686.178 C 68.264 685.608 68.326 685.001 68.611 684.469 C 68.896 683.937 69.368 683.55 69.939 683.379 C 69.953 683.374 69.966 683.368 69.98 683.364 L 75.045 681.839 C 75.046 681.839 75.047 681.839 75.048 681.838 C 75.048 681.838 77.838 680.995 77.838 680.995 C 79.026 680.638 80.284 681.314 80.641 682.501 C 80.996 683.682 80.335 684.929 79.166 685.295 C 79.166 685.295 74.033 686.844 74.033 686.844 L 71.237 687.684 Z  M 76.373 694.626 C 75.189 694.985 73.933 694.309 73.574 693.124 C 73.217 691.936 73.892 690.678 75.082 690.321 L 82.98 687.938 C 83.191 687.875 83.407 687.844 83.622 687.844 C 83.99 687.844 84.356 687.935 84.692 688.116 C 85.224 688.402 85.611 688.874 85.783 689.445 C 85.955 690.016 85.892 690.624 85.605 691.156 C 85.319 691.688 84.847 692.076 84.277 692.247 L 84.276 692.247 L 84.274 692.248 C 84.274 692.248 84.274 692.248 84.274 692.248 L 76.373 694.626 Z  M 90.747 698.099 C 90.461 698.631 89.989 699.019 89.416 699.191 L 81.518 701.573 C 80.947 701.744 80.339 701.682 79.806 701.395 C 79.274 701.109 78.887 700.637 78.715 700.067 C 78.543 699.494 78.606 698.886 78.891 698.353 C 79.176 697.822 79.646 697.435 80.216 697.264 C 80.23 697.26 80.243 697.254 80.257 697.249 L 88.116 694.881 C 89.304 694.524 90.565 695.201 90.924 696.387 C 91.096 696.959 91.033 697.567 90.747 698.099 Z  M 128.138 732.617 L 123.555 728.033 C 123.771 727.46 123.898 726.85 123.925 726.221 L 124.286 717.982 C 124.286 717.973 124.286 717.965 124.287 717.957 L 124.647 705.99 C 124.697 704.302 124.816 703.501 124.931 703.129 C 125.279 703.213 126.059 703.501 127.611 704.466 C 129.209 705.46 131.39 707.014 134.635 709.472 C 134.916 709.686 135.183 709.918 135.433 710.168 L 143.012 717.743 L 128.138 732.617 Z " fill="rgb(239,99,98)"/><path d=" M 126.304 690.016 C 126.657 690.369 127.12 690.546 127.584 690.546 C 128.049 690.546 128.514 690.368 128.869 690.013 C 129.578 689.304 129.575 688.152 128.866 687.443 C 128.157 686.734 127.008 686.734 126.298 687.443 C 125.589 688.152 125.589 689.301 126.298 690.01 L 126.304 690.016 Z " fill="rgb(239,99,98)"/></g></svg>