<?xml version="1.0" encoding="UTF-8" standalone="no"?><!-- Generator: Gravit.io --><svg xmlns="http://www.w3.org/2000/svg" xmlns:xlink="http://www.w3.org/1999/xlink" style="isolation:isolate" viewBox="938.772 524.742 92.96 92.96" width="92.96pt" height="92.96pt"><g><g><g><path d=" M 985.252 617.702 C 959.622 617.702 938.772 596.852 938.772 571.222 C 938.772 545.592 959.622 524.742 985.252 524.742 C 1010.882 524.742 1031.732 545.592 1031.732 571.222 C 1031.732 596.852 1010.882 617.702 985.252 617.702 Z  M 985.252 528.615 C 961.761 528.615 942.646 547.73 942.646 571.222 C 942.646 594.714 961.761 613.828 985.252 613.828 C 1008.744 613.828 1027.859 594.714 1027.859 571.222 C 1027.859 547.73 1008.744 528.615 985.252 528.615 Z " fill="rgb(239,99,98)"/></g></g><g><g><path d=" M 985.252 594.462 C 984.714 594.462 984.203 594.237 983.838 593.846 L 964.019 572.609 C 958.786 567 958.786 557.871 964.019 552.266 C 969.166 546.746 978.211 546.739 983.366 552.266 L 985.252 554.284 L 987.139 552.266 C 992.29 546.735 1001.334 546.743 1006.486 552.266 C 1011.719 557.871 1011.719 567 1006.49 572.609 L 986.666 593.846 C 986.302 594.237 985.791 594.462 985.252 594.462 Z  M 973.694 551.855 C 971.115 551.855 968.686 552.936 966.846 554.904 C 962.977 559.056 962.977 565.811 966.85 569.967 L 985.252 589.69 L 1003.658 569.967 C 1007.528 565.815 1007.528 559.06 1003.658 554.904 C 999.986 550.972 993.65 550.965 989.97 554.904 L 986.666 558.444 C 985.938 559.23 984.563 559.23 983.838 558.444 L 980.535 554.904 C 978.699 552.936 976.27 551.855 973.694 551.855 Z " fill="rgb(239,99,98)"/></g></g></g></svg>