<?xml version="1.0" encoding="UTF-8" standalone="no"?><!-- Generator: Gravit.io --><svg xmlns="http://www.w3.org/2000/svg" xmlns:xlink="http://www.w3.org/1999/xlink" style="isolation:isolate" viewBox="210.219 667.35 50.317 46.341" width="50.317pt" height="46.341pt"><g><g><path d=" M 235.378 713.691 C 234.839 713.691 234.328 713.466 233.964 713.075 L 214.144 691.838 C 208.911 686.229 208.911 677.1 214.144 671.495 C 219.292 665.975 228.336 665.968 233.491 671.495 L 235.378 673.513 L 237.264 671.495 C 242.415 665.964 251.46 665.972 256.611 671.495 C 261.844 677.1 261.844 686.229 256.615 691.838 L 236.791 713.075 C 236.427 713.466 235.916 713.691 235.378 713.691 Z  M 223.82 671.084 C 221.24 671.084 218.811 672.165 216.972 674.133 C 213.102 678.285 213.102 685.04 216.975 689.196 L 235.378 708.919 L 253.784 689.196 C 257.653 685.044 257.653 678.289 253.784 674.133 C 250.112 670.201 243.775 670.193 240.095 674.133 L 236.791 677.673 C 236.063 678.459 234.688 678.459 233.964 677.673 L 230.66 674.133 C 228.824 672.165 226.395 671.084 223.82 671.084 Z " fill="rgb(255,255,255)"/></g></g></svg>