<?xml version="1.0" encoding="UTF-8" standalone="no"?><!-- Generator: Gravit.io --><svg xmlns="http://www.w3.org/2000/svg" xmlns:xlink="http://www.w3.org/1999/xlink" style="isolation:isolate" viewBox="319.041 211.778 92.96 92.96" width="92.96pt" height="92.96pt"><g><path d=" M 386.838 211.778 L 344.205 211.778 C 330.329 211.778 319.041 223.066 319.041 236.941 L 319.041 279.575 C 319.041 293.45 330.329 304.738 344.205 304.738 L 386.838 304.738 C 400.713 304.738 412.001 293.45 412.001 279.575 L 412.001 236.941 C 412.001 223.066 400.713 211.778 386.838 211.778 L 386.838 211.778 Z  M 365.521 283.676 C 351.506 283.676 340.103 272.274 340.103 258.258 C 340.103 244.242 351.506 232.84 365.521 232.84 C 379.537 232.84 390.939 244.242 390.939 258.258 C 390.939 272.274 379.537 283.676 365.521 283.676 L 365.521 283.676 Z  M 391.547 238.834 C 387.405 238.834 384.036 235.465 384.036 231.324 C 384.036 227.182 387.405 223.812 391.547 223.812 C 395.689 223.812 399.058 227.182 399.058 231.324 C 399.058 235.465 395.689 238.834 391.547 238.834 Z " fill="rgb(251,173,49)"/><path d=" M 365.521 238.29 C 354.511 238.29 345.553 247.247 345.553 258.258 C 345.553 269.268 354.511 278.226 365.521 278.226 C 376.532 278.226 385.49 269.268 385.49 258.258 C 385.49 247.247 376.532 238.29 365.521 238.29 L 365.521 238.29 Z " fill="rgb(251,173,49)"/><path d=" M 391.547 229.263 C 390.411 229.263 389.486 230.187 389.486 231.324 C 389.486 232.46 390.411 233.385 391.547 233.385 C 392.684 233.385 393.609 232.46 393.609 231.324 C 393.609 230.187 392.684 229.263 391.547 229.263 Z " fill="rgb(251,173,49)"/></g></svg>