<?xml version="1.0" encoding="UTF-8" standalone="no"?><!-- Generator: Gravit.io --><svg xmlns="http://www.w3.org/2000/svg" xmlns:xlink="http://www.w3.org/1999/xlink" style="isolation:isolate" viewBox="464.581 644.04 63.242 93" width="63.242pt" height="93pt"><path d=" M 494.144 734.769 C 492.135 732.038 490.169 729.37 488.277 726.671 C 481.773 717.425 475.758 707.881 470.901 697.647 C 468.521 692.62 466.331 687.498 465.269 682.024 C 463.26 671.758 465.641 662.534 472.591 654.68 C 479.297 647.124 487.884 643.659 497.959 644.074 C 512.019 644.658 524.294 655.232 527.153 669.059 C 528.322 674.734 527.939 680.282 526.196 685.808 C 522.7 696.797 517.227 706.797 510.967 716.383 C 506.493 723.227 501.625 729.816 496.928 736.512 C 496.811 736.671 496.694 736.82 496.535 737.001 C 496.301 737.256 495.238 736.257 494.144 734.769 Z  M 511.658 676.126 C 512.072 668.124 505.43 660.663 497.491 660.227 C 488.33 659.717 481.231 666.094 480.742 675.308 C 480.317 683.31 487.108 690.739 495.217 691.122 C 504.133 691.547 511.201 685.085 511.658 676.126 Z " fill="rgb(239,99,98)"/></svg>