<?xml version="1.0" encoding="UTF-8" standalone="no"?><!-- Generator: Gravit.io --><svg xmlns="http://www.w3.org/2000/svg" xmlns:xlink="http://www.w3.org/1999/xlink" style="isolation:isolate" viewBox="319.038 46 92.963 92.96" width="92.963pt" height="92.96pt"><g><path d=" M 377.074 71.383 C 377.073 65.002 371.9 59.829 365.519 59.83 C 359.137 59.83 353.965 65.004 353.965 71.385 C 353.965 77.766 359.138 82.939 365.52 82.939 C 371.898 82.931 377.067 77.762 377.074 71.383 Z  M 356.702 71.383 C 356.702 66.513 360.651 62.566 365.521 62.567 C 370.39 62.567 374.338 66.515 374.337 71.385 C 374.337 76.255 370.389 80.202 365.52 80.202 C 360.651 80.197 356.706 76.251 356.702 71.383 Z " fill="rgb(239,99,98)"/><path d=" M 411.91 137.103 L 400.755 107.859 C 400.553 107.329 400.044 106.979 399.477 106.978 L 378.364 106.978 C 378.493 106.768 378.622 106.564 378.751 106.353 C 386.874 92.903 390.962 81.138 390.904 71.389 C 390.906 57.369 379.543 46.002 365.523 46 C 351.503 45.998 340.136 57.361 340.134 71.381 C 340.075 81.138 344.163 92.905 352.287 106.353 C 352.416 106.566 352.544 106.77 352.673 106.978 L 331.561 106.978 C 330.993 106.979 330.485 107.329 330.282 107.859 L 319.129 137.103 C 318.967 137.524 319.024 137.997 319.279 138.368 C 319.535 138.739 319.957 138.96 320.407 138.96 L 410.632 138.96 C 411.082 138.96 411.504 138.739 411.76 138.368 C 412.015 137.997 412.072 137.524 411.91 137.103 L 411.91 137.103 Z  M 342.871 71.383 C 342.874 58.875 353.015 48.737 365.523 48.739 C 378.032 48.741 388.17 58.883 388.168 71.391 C 388.285 90.828 370.113 114.802 365.52 120.55 C 360.926 114.804 342.753 90.837 342.871 71.383 Z  M 364.477 123.6 C 364.737 123.906 365.118 124.082 365.52 124.082 C 365.921 124.082 366.302 123.906 366.562 123.6 C 370.195 119.174 373.563 114.537 376.649 109.714 L 398.533 109.714 L 400.285 114.307 L 357.52 129.517 L 342.276 109.711 L 354.389 109.711 C 357.475 114.536 360.843 119.173 364.477 123.6 L 364.477 123.6 Z  M 357.472 132.436 L 357.48 132.436 L 382.992 123.365 L 392.887 136.223 L 346.831 136.223 L 357.472 132.436 Z  M 332.505 109.711 L 338.823 109.711 L 354.807 130.481 L 338.665 136.222 L 322.393 136.222 L 332.505 109.711 Z  M 396.344 136.223 L 385.703 122.397 L 401.264 116.863 L 408.647 136.223 L 396.344 136.223 Z " fill="rgb(239,99,98)"/></g></svg>