<?xml version="1.0" encoding="UTF-8" standalone="no"?>
<svg
   xmlns:dc="http://purl.org/dc/elements/1.1/"
   xmlns:cc="http://creativecommons.org/ns#"
   xmlns:rdf="http://www.w3.org/1999/02/22-rdf-syntax-ns#"
   xmlns:svg="http://www.w3.org/2000/svg"
   xmlns="http://www.w3.org/2000/svg"
   xmlns:sodipodi="http://sodipodi.sourceforge.net/DTD/sodipodi-0.dtd"
   xmlns:inkscape="http://www.inkscape.org/namespaces/inkscape"
   inkscape:version="1.0 (4035a4fb49, 2020-05-01)"
   sodipodi:docname="ModernHandDrawnPattern_02 White.svg"
   id="svg394"
   xml:space="preserve"
   style="enable-background:new 0 0 2800 2800;"
   viewBox="0 0 2800 2800"
   y="0px"
   x="0px"
   version="1.1"><metadata
   id="metadata400"><rdf:RDF><cc:Work
       rdf:about=""><dc:format>image/svg+xml</dc:format><dc:type
         rdf:resource="http://purl.org/dc/dcmitype/StillImage" /><dc:title></dc:title></cc:Work></rdf:RDF></metadata><defs
   id="defs398" /><sodipodi:namedview
   inkscape:current-layer="svg394"
   inkscape:window-maximized="1"
   inkscape:window-y="0"
   inkscape:window-x="0"
   inkscape:cy="1400"
   inkscape:cx="1400"
   inkscape:zoom="0.3125"
   showgrid="false"
   id="namedview396"
   inkscape:window-height="1041"
   inkscape:window-width="1920"
   inkscape:pageshadow="2"
   inkscape:pageopacity="0"
   guidetolerance="10"
   gridtolerance="10"
   objecttolerance="10"
   borderopacity="1"
   bordercolor="#666666"
   pagecolor="#ffffff" />

<g
   style="fill:#ffffff;fill-opacity:1"
   id="Capa_1">
	<polygon
   id="polygon5"
   points="1.3,-85 -28.7,130.9 133.3,88.9  "
   style="fill:#ffffff;fill-opacity:1" />
	<polygon
   id="polygon7"
   points="469.2,462.7 389.2,678.7 513,651.8  "
   style="fill:#ffffff;fill-opacity:1" />
	<polygon
   id="polygon9"
   points="250,546.1 202.6,706 304.2,693.1  "
   style="fill:#ffffff;fill-opacity:1" />
	<polygon
   id="polygon11"
   points="258,68.6 206.5,228.4 330.2,243.9  "
   style="fill:#ffffff;fill-opacity:1" />
	<polygon
   id="polygon13"
   points="410.1,-11.4 368.9,130.9 502.9,112.4  "
   style="fill:#ffffff;fill-opacity:1" />
	<path
   id="path15"
   d="M31.1,233.6c-2.6,7.7-46.4,201.1-46.4,201.1l148.5-30.9L31.1,233.6z"
   style="fill:#ffffff;fill-opacity:1" />
	<path
   id="path17"
   d="M381.8,285.1c-2.6,7.7-51.6,165-51.6,165l131.5-30.9L381.8,285.1z"
   style="fill:#ffffff;fill-opacity:1" />
	<path
   id="path19"
   d="M618.9-150.6C616.4-140.3,575.1,84,575.1,84L686,59.8L618.9-150.6z"
   style="fill:#ffffff;fill-opacity:1" />
	<polygon
   id="polygon21"
   points="515.8,182 502.9,261.9 575.1,261.9  "
   style="fill:#ffffff;fill-opacity:1" />
	<polygon
   id="polygon23"
   points="673.1,130.9 655,334.1 758.1,285.1  "
   style="fill:#ffffff;fill-opacity:1" />
	<path
   id="path25"
   d="M539,323.8c0,10.3-20.6,126.3-20.6,126.3l112.1-25.8L539,323.8z"
   style="fill:#ffffff;fill-opacity:1" />
	<path
   id="path27"
   d="M206.5,313.5c0,7.7-22.4,105.7-22.4,105.7h66.2L206.5,313.5z"
   style="fill:#ffffff;fill-opacity:1" />
	<polygon
   id="polygon29"
   points="404.5,2107.9 381.3,2235.5 440.6,2235.5  "
   style="fill:#ffffff;fill-opacity:1" />
	<polygon
   id="polygon31"
   points="440.6,2320.6 411,2472.7 512.3,2472.7  "
   style="fill:#ffffff;fill-opacity:1" />
	<polygon
   id="polygon33"
   points="2801.3,-85 2771.3,130.9 2933.3,88.9  "
   style="fill:#ffffff;fill-opacity:1" />
	<polygon
   id="polygon35"
   points="2016.9,294.7 1937,510.6 2060.7,483.8  "
   style="fill:#ffffff;fill-opacity:1" />
	<polygon
   id="polygon37"
   points="2188.8,269.6 2141.5,429.5 2243,416.6  "
   style="fill:#ffffff;fill-opacity:1" />
	<polygon
   id="polygon39"
   points="2461.8,517.4 2410.2,677.3 2533.9,692.7  "
   style="fill:#ffffff;fill-opacity:1" />
	<polygon
   id="polygon41"
   points="2027.2,584.3 1986,726.6 2120,708.1  "
   style="fill:#ffffff;fill-opacity:1" />
	<path
   id="path43"
   d="M2831.1,233.6c-2.6,7.7-46.4,201.1-46.4,201.1l148.5-30.9L2831.1,233.6z"
   style="fill:#ffffff;fill-opacity:1" />
	<path
   id="path45"
   d="M835.3-82.5c-2.6,7.7-51.6,165-51.6,165l131.5-30.9L835.3-82.5z"
   style="fill:#ffffff;fill-opacity:1" />
	<path
   id="path47"
   d="M2236,472.3c-2.6,10.3-43.8,234.6-43.8,234.6l110.9-24.3L2236,472.3z"
   style="fill:#ffffff;fill-opacity:1" />
	<polygon
   id="polygon49"
   points="799.7,138 786.9,217.9 859,217.9  "
   style="fill:#ffffff;fill-opacity:1" />
	<polygon
   id="polygon51"
   points="2313.8,761.3 2295.8,964.5 2398.9,915.5  "
   style="fill:#ffffff;fill-opacity:1" />
	<path
   id="path53"
   d="M2017.6,1319.4c0,10.3-20.6,126.3-20.6,126.3l112.1-25.8L2017.6,1319.4z"
   style="fill:#ffffff;fill-opacity:1" />
	<path
   id="path55"
   d="M2542.3,335.7c0,7.7-22.4,105.7-22.4,105.7h66.2L2542.3,335.7z"
   style="fill:#ffffff;fill-opacity:1" />
	<polygon
   id="polygon57"
   points="2663.6,221.9 2640.4,349.6 2699.7,349.6  "
   style="fill:#ffffff;fill-opacity:1" />
	<polygon
   id="polygon59"
   points="2699.7,434.6 2670,586.7 2771.3,586.7  "
   style="fill:#ffffff;fill-opacity:1" />
	<polygon
   id="polygon61"
   points="1.3,2715 -28.7,2930.9 133.3,2888.9  "
   style="fill:#ffffff;fill-opacity:1" />
	<polygon
   id="polygon63"
   points="373.8,2522.7 293.9,2738.7 417.6,2711.8  "
   style="fill:#ffffff;fill-opacity:1" />
	<polygon
   id="polygon65"
   points="177.5,2598.3 130.1,2758.2 231.6,2745.3  "
   style="fill:#ffffff;fill-opacity:1" />
	<polygon
   id="polygon67"
   points="2181.9,887.2 2130.3,1047 2254.1,1062.5  "
   style="fill:#ffffff;fill-opacity:1" />
	<polygon
   id="polygon69"
   points="410.1,2788.6 368.9,2930.9 502.9,2912.4  "
   style="fill:#ffffff;fill-opacity:1" />
	<path
   id="path71"
   d="M1288.7,1124.7c-2.6,7.7-46.4,201.1-46.4,201.1l148.5-30.9L1288.7,1124.7z"
   style="fill:#ffffff;fill-opacity:1" />
	<path
   id="path73"
   d="M736.8,1035.6c-2.6,7.7-51.6,165-51.6,165l131.5-30.9L736.8,1035.6z"
   style="fill:#ffffff;fill-opacity:1" />
	<path
   id="path75"
   d="M618.9,2649.4c-2.6,10.3-43.8,234.6-43.8,234.6l110.9-24.3L618.9,2649.4z"
   style="fill:#ffffff;fill-opacity:1" />
	<polygon
   id="polygon77"
   points="1155,833.1 1142.1,913 1214.3,913  "
   style="fill:#ffffff;fill-opacity:1" />
	<polygon
   id="polygon79"
   points="1312.2,782 1294.2,985.2 1397.3,936.2  "
   style="fill:#ffffff;fill-opacity:1" />
	<path
   id="path81"
   d="M1178.2,974.8c0,10.3-20.6,126.3-20.6,126.3l112.1-25.8L1178.2,974.8z"
   style="fill:#ffffff;fill-opacity:1" />
	<path
   id="path83"
   d="M880.8,826.8c0,7.7-22.4,105.7-22.4,105.7h66.2L880.8,826.8z"
   style="fill:#ffffff;fill-opacity:1" />
	<polygon
   id="polygon85"
   points="502.8,873 479.6,1000.6 538.9,1000.6  "
   style="fill:#ffffff;fill-opacity:1" />
	<polygon
   id="polygon87"
   points="538.9,1085.7 509.2,1237.8 610.5,1237.8  "
   style="fill:#ffffff;fill-opacity:1" />
	<polygon
   id="polygon89"
   points="2801.3,2715 2771.3,2930.9 2933.3,2888.9  "
   style="fill:#ffffff;fill-opacity:1" />
	<polygon
   id="polygon91"
   points="1522.4,1770.1 1442.5,1986 1566.3,1959.2  "
   style="fill:#ffffff;fill-opacity:1" />
	<polygon
   id="polygon93"
   points="1303.3,1853.5 1255.9,2013.3 1357.4,2000.4  "
   style="fill:#ffffff;fill-opacity:1" />
	<polygon
   id="polygon95"
   points="1380.6,2139.7 1329.1,2299.5 1452.8,2315  "
   style="fill:#ffffff;fill-opacity:1" />
	<polygon
   id="polygon97"
   points="1532.7,2059.7 1491.5,2202 1625.5,2183.5  "
   style="fill:#ffffff;fill-opacity:1" />
	<path
   id="path99"
   d="M2656.9,2335.2c-2.6,7.7-46.4,201.1-46.4,201.1l148.5-30.9L2656.9,2335.2z"
   style="fill:#ffffff;fill-opacity:1" />
	<path
   id="path101"
   d="M835.3,2717.5c-2.6,7.7-51.6,165-51.6,165l131.5-30.9L835.3,2717.5z"
   style="fill:#ffffff;fill-opacity:1" />
	<path
   id="path103"
   d="M1741.6,1920.5c-2.6,10.3-43.8,234.6-43.8,234.6l110.9-24.3L1741.6,1920.5z"
   style="fill:#ffffff;fill-opacity:1" />
	<polygon
   id="polygon105"
   points="1638.4,2253.1 1625.5,2333 1697.7,2333  "
   style="fill:#ffffff;fill-opacity:1" />
	<polygon
   id="polygon107"
   points="1795.7,2202 1777.6,2405.2 1880.8,2356.2  "
   style="fill:#ffffff;fill-opacity:1" />
	<path
   id="path109"
   d="M1661.6,2394.9c0,10.3-20.6,126.3-20.6,126.3l112.1-25.8L1661.6,2394.9z"
   style="fill:#ffffff;fill-opacity:1" />
	<path
   id="path111"
   d="M1329.1,2384.6c0,7.7-22.4,105.7-22.4,105.7h66.2L1329.1,2384.6z"
   style="fill:#ffffff;fill-opacity:1" />
	<polygon
   id="polygon113"
   points="2687.2,2590.2 2664,2717.8 2723.3,2717.8  "
   style="fill:#ffffff;fill-opacity:1" />
	<polygon
   id="polygon115"
   points="2464.2,2217 2434.5,2369.1 2535.8,2369.1  "
   style="fill:#ffffff;fill-opacity:1" />
	<polygon
   id="polygon117"
   points="977.3,880.9 947.4,1096.9 1109.3,1054.9  "
   style="fill:#ffffff;fill-opacity:1" />
	<polygon
   id="polygon119"
   points="100.5,573.2 20.6,789.2 144.4,762.3  "
   style="fill:#ffffff;fill-opacity:1" />
	<polygon
   id="polygon121"
   points="571.1,2147.4 523.7,2307.2 625.2,2294.3  "
   style="fill:#ffffff;fill-opacity:1" />
	<polygon
   id="polygon123"
   points="-41.2,942.8 -92.8,1102.6 30.9,1118.1  "
   style="fill:#ffffff;fill-opacity:1" />
	<polygon
   id="polygon125"
   points="110.9,862.9 69.6,1005.1 203.7,986.6  "
   style="fill:#ffffff;fill-opacity:1" />
	<path
   id="path127"
   d="M1801.3,441.4c-2.6,7.7-46.4,201.1-46.4,201.1l148.5-30.9L1801.3,441.4z"
   style="fill:#ffffff;fill-opacity:1" />
	<path
   id="path129"
   d="M82.5,1159.3c-2.6,7.7-51.6,165-51.6,165l131.5-30.9L82.5,1159.3z"
   style="fill:#ffffff;fill-opacity:1" />
	<path
   id="path131"
   d="M319.7,723.6c-2.6,10.3-43.8,234.6-43.8,234.6L386.7,934L319.7,723.6z"
   style="fill:#ffffff;fill-opacity:1" />
	<polygon
   id="polygon133"
   points="216.6,1056.2 203.7,1136.1 275.8,1136.1  "
   style="fill:#ffffff;fill-opacity:1" />
	<polygon
   id="polygon135"
   points="373.8,1005.1 355.8,1208.3 458.9,1159.3  "
   style="fill:#ffffff;fill-opacity:1" />
	<path
   id="path137"
   d="M239.8,1198c0,10.3-20.6,126.3-20.6,126.3l112.1-25.8L239.8,1198z"
   style="fill:#ffffff;fill-opacity:1" />
	<path
   id="path139"
   d="M1597.2,1419.2c0,7.7-22.4,105.7-22.4,105.7h66.2L1597.2,1419.2z"
   style="fill:#ffffff;fill-opacity:1" />
	<polygon
   id="polygon141"
   points="1865.1,1295.6 1841.9,1423.2 1901.2,1423.2  "
   style="fill:#ffffff;fill-opacity:1" />
	<polygon
   id="polygon143"
   points="677.6,796.7 648,948.8 749.3,948.8  "
   style="fill:#ffffff;fill-opacity:1" />
	<polygon
   id="polygon145"
   points="2502.1,789.2 2472.1,1005.1 2634,963.1  "
   style="fill:#ffffff;fill-opacity:1" />
	<polygon
   id="polygon147"
   points="761,1964.7 681,2180.7 804.8,2153.8  "
   style="fill:#ffffff;fill-opacity:1" />
	<polygon
   id="polygon149"
   points="2681.4,656.6 2634,816.5 2735.6,803.6  "
   style="fill:#ffffff;fill-opacity:1" />
	<polygon
   id="polygon151"
   points="2758.8,942.8 2707.2,1102.6 2830.9,1118.1  "
   style="fill:#ffffff;fill-opacity:1" />
	<polygon
   id="polygon153"
   points="744.2,2249.5 703,2391.8 837,2373.2  "
   style="fill:#ffffff;fill-opacity:1" />
	<path
   id="path155"
   d="M2531.9,1107.8c-2.6,7.7-46.4,201.1-46.4,201.1l148.5-30.9L2531.9,1107.8z"
   style="fill:#ffffff;fill-opacity:1" />
	<path
   id="path157"
   d="M794.5,2505.6c-2.6,7.7-51.6,165-51.6,165l131.5-30.9L794.5,2505.6z"
   style="fill:#ffffff;fill-opacity:1" />
	<path
   id="path159"
   d="M946.6,2028.3c-2.6,10.3-43.8,234.6-43.8,234.6l110.9-24.3L946.6,2028.3z"
   style="fill:#ffffff;fill-opacity:1" />
	<polygon
   id="polygon161"
   points="2563,1653.2 2550.1,1733.2 2622.3,1733.2  "
   style="fill:#ffffff;fill-opacity:1" />
	<polygon
   id="polygon163"
   points="2612.6,1359.4 2594.5,1562.5 2697.6,1513.6  "
   style="fill:#ffffff;fill-opacity:1" />
	<path
   id="path165"
   d="M972,2579.2c0,10.3-20.6,126.3-20.6,126.3l112.1-25.8L972,2579.2z"
   style="fill:#ffffff;fill-opacity:1" />
	<path
   id="path167"
   d="M2707.2,1187.7c0,7.7-22.4,105.7-22.4,105.7h66.2L2707.2,1187.7z"
   style="fill:#ffffff;fill-opacity:1" />
	<polygon
   id="polygon169"
   points="2364.3,1096.2 2341.1,1223.8 2400.4,1223.8  "
   style="fill:#ffffff;fill-opacity:1" />
	<polygon
   id="polygon171"
   points="2451.1,1366.3 2421.4,1518.4 2522.7,1518.4  "
   style="fill:#ffffff;fill-opacity:1" />
	<polygon
   id="polygon173"
   points="-22.6,1553 -52.6,1769 109.4,1727  "
   style="fill:#ffffff;fill-opacity:1" />
	<polygon
   id="polygon175"
   points="375.9,1337.1 295.9,1553 419.7,1526.2  "
   style="fill:#ffffff;fill-opacity:1" />
	<polygon
   id="polygon177"
   points="156.7,1420.5 109.4,1580.3 210.9,1567.4  "
   style="fill:#ffffff;fill-opacity:1" />
	<polygon
   id="polygon179"
   points="234.1,1706.6 182.5,1866.5 306.3,1881.9  "
   style="fill:#ffffff;fill-opacity:1" />
	<polygon
   id="polygon181"
   points="432.6,1667 391.3,1809.2 525.4,1790.7  "
   style="fill:#ffffff;fill-opacity:1" />
	<path
   id="path183"
   d="M7.2,1871.6c-2.6,7.7-46.4,201.1-46.4,201.1l148.5-30.9L7.2,1871.6z"
   style="fill:#ffffff;fill-opacity:1" />
	<path
   id="path185"
   d="M357.8,1923.2c-2.6,7.7-51.6,165-51.6,165l131.5-30.9L357.8,1923.2z"
   style="fill:#ffffff;fill-opacity:1" />
	<path
   id="path187"
   d="M621.6,1524.4c-2.6,10.3-43.8,234.6-43.8,234.6l110.9-24.3L621.6,1524.4z"
   style="fill:#ffffff;fill-opacity:1" />
	<polygon
   id="polygon189"
   points="498.5,776.5 485.6,856.4 557.8,856.4  "
   style="fill:#ffffff;fill-opacity:1" />
	<polygon
   id="polygon191"
   points="649.1,1769 631.1,1972.2 734.2,1923.2  "
   style="fill:#ffffff;fill-opacity:1" />
	<path
   id="path193"
   d="M515.1,1961.9c0,10.3-20.6,126.3-20.6,126.3l112.1-25.8L515.1,1961.9z"
   style="fill:#ffffff;fill-opacity:1" />
	<path
   id="path195"
   d="M182.5,1951.5c0,7.7-22.4,105.7-22.4,105.7h66.2L182.5,1951.5z"
   style="fill:#ffffff;fill-opacity:1" />
	<polygon
   id="polygon197"
   points="963.5,2371.9 940.3,2499.5 999.6,2499.5  "
   style="fill:#ffffff;fill-opacity:1" />
	<polygon
   id="polygon199"
   points="561.5,2429.6 531.9,2581.7 633.2,2581.7  "
   style="fill:#ffffff;fill-opacity:1" />
	<polygon
   id="polygon201"
   points="2777.4,1553 2747.4,1769 2909.4,1727  "
   style="fill:#ffffff;fill-opacity:1" />
	<polygon
   id="polygon203"
   points="2138.1,1468.5 2058.2,1684.5 2181.9,1657.6  "
   style="fill:#ffffff;fill-opacity:1" />
	<polygon
   id="polygon205"
   points="1918.9,1543.6 1871.5,1703.4 1973.1,1690.5  "
   style="fill:#ffffff;fill-opacity:1" />
	<polygon
   id="polygon207"
   points="2031.2,1795 1979.7,1954.9 2103.4,1970.3  "
   style="fill:#ffffff;fill-opacity:1" />
	<polygon
   id="polygon209"
   points="2183.3,1715.1 2142.1,1857.4 2276.1,1838.9  "
   style="fill:#ffffff;fill-opacity:1" />
	<path
   id="path211"
   d="M2807.2,1871.6c-2.6,7.7-46.4,201.1-46.4,201.1l148.5-30.9L2807.2,1871.6z"
   style="fill:#ffffff;fill-opacity:1" />
	<path
   id="path213"
   d="M2155,2011.6c-2.6,7.7-51.6,165-51.6,165l131.5-30.9L2155,2011.6z"
   style="fill:#ffffff;fill-opacity:1" />
	<path
   id="path215"
   d="M2392.2,1575.9c-2.6,10.3-43.8,234.6-43.8,234.6l110.9-24.3L2392.2,1575.9z"
   style="fill:#ffffff;fill-opacity:1" />
	<polygon
   id="polygon217"
   points="2289,1908.5 2276.1,1988.4 2348.3,1988.4  "
   style="fill:#ffffff;fill-opacity:1" />
	<polygon
   id="polygon219"
   points="2446.3,1857.4 2428.2,2060.6 2531.4,2011.6  "
   style="fill:#ffffff;fill-opacity:1" />
	<path
   id="path221"
   d="M2312.2,2050.3c0,10.3-20.6,126.3-20.6,126.3l112.1-25.8L2312.2,2050.3z"
   style="fill:#ffffff;fill-opacity:1" />
	<path
   id="path223"
   d="M1979.7,2039.9c0,7.7-22.4,105.7-22.4,105.7h66.2L1979.7,2039.9z"
   style="fill:#ffffff;fill-opacity:1" />
	<polygon
   id="polygon225"
   points="2639.6,1860 2616.4,1987.6 2675.7,1987.6  "
   style="fill:#ffffff;fill-opacity:1" />
	<polygon
   id="polygon227"
   points="2675.7,2072.7 2646.1,2224.8 2747.4,2224.8  "
   style="fill:#ffffff;fill-opacity:1" />
	<polygon
   id="polygon229"
   points="1127.2,1980.2 1097.2,2196.2 1259.2,2154.2  "
   style="fill:#ffffff;fill-opacity:1" />
	<polygon
   id="polygon231"
   points="2395.9,279 2316,494.9 2439.7,468.1  "
   style="fill:#ffffff;fill-opacity:1" />
	<polygon
   id="polygon233"
   points="1313.2,1392.2 1265.8,1552 1367.3,1539.1  "
   style="fill:#ffffff;fill-opacity:1" />
	<polygon
   id="polygon235"
   points="2163.9,-137.2 2112.3,22.6 2236,38.1  "
   style="fill:#ffffff;fill-opacity:1" />
	<polygon
   id="polygon237"
   points="1542.6,1598.4 1501.4,1740.7 1635.4,1722.1  "
   style="fill:#ffffff;fill-opacity:1" />
	<path
   id="path239"
   d="M1937,27.8c-2.6,7.7-46.4,201.1-46.4,201.1l148.5-30.9L1937,27.8z"
   style="fill:#ffffff;fill-opacity:1" />
	<path
   id="path241"
   d="M2287.6,79.3c-2.6,7.7-51.6,165-51.6,165l131.5-30.9L2287.6,79.3z"
   style="fill:#ffffff;fill-opacity:1" />
	<path
   id="path243"
   d="M1751.4,1459.2c-2.6,10.3-43.8,234.6-43.8,234.6l110.9-24.3L1751.4,1459.2z"
   style="fill:#ffffff;fill-opacity:1" />
	<polygon
   id="polygon245"
   points="2421.7,-23.8 2408.8,56.1 2480.9,56.1  "
   style="fill:#ffffff;fill-opacity:1" />
	<polygon
   id="polygon247"
   points="2578.9,-74.9 2560.9,128.3 2664,79.3  "
   style="fill:#ffffff;fill-opacity:1" />
	<path
   id="path249"
   d="M2444.9,118c0,10.3-20.6,126.3-20.6,126.3l112.1-25.8L2444.9,118z"
   style="fill:#ffffff;fill-opacity:1" />
	<path
   id="path251"
   d="M2112.3,107.7c0,7.7-22.4,105.7-22.4,105.7h66.2L2112.3,107.7z"
   style="fill:#ffffff;fill-opacity:1" />
	<polygon
   id="polygon253"
   points="1769.4,16.2 1746.2,143.8 1805.5,143.8  "
   style="fill:#ffffff;fill-opacity:1" />
	<polygon
   id="polygon255"
   points="1805.5,228.8 1775.9,380.9 1877.2,380.9  "
   style="fill:#ffffff;fill-opacity:1" />
	<polygon
   id="polygon257"
   points="1907.2,2509.2 1877.2,2725.1 2039.1,2683.1  "
   style="fill:#ffffff;fill-opacity:1" />
	<polygon
   id="polygon259"
   points="2305.6,2293.2 2225.7,2509.2 2349.5,2482.3  "
   style="fill:#ffffff;fill-opacity:1" />
	<polygon
   id="polygon261"
   points="2086.5,2376.6 2039.1,2536.4 2140.7,2523.6  "
   style="fill:#ffffff;fill-opacity:1" />
	<polygon
   id="polygon263"
   points="2163.9,2662.8 2112.3,2822.6 2236,2838.1  "
   style="fill:#ffffff;fill-opacity:1" />
	<polygon
   id="polygon265"
   points="2316,2582.8 2274.7,2725.1 2408.8,2706.6  "
   style="fill:#ffffff;fill-opacity:1" />
	<path
   id="path267"
   d="M654.8,508.8c-2.6,7.7-46.4,201.1-46.4,201.1L756.9,679L654.8,508.8z"
   style="fill:#ffffff;fill-opacity:1" />
	<path
   id="path269"
   d="M1054.1,621.1c-2.6,7.7-51.6,165-51.6,165l131.5-30.9L1054.1,621.1z"
   style="fill:#ffffff;fill-opacity:1" />
	<path
   id="path271"
   d="M2524.8,2443.6c-2.6,10.3-43.8,234.6-43.8,234.6l110.9-24.3L2524.8,2443.6z"
   style="fill:#ffffff;fill-opacity:1" />
	<polygon
   id="polygon273"
   points="2421.7,2776.2 2408.8,2856.1 2480.9,2856.1  "
   style="fill:#ffffff;fill-opacity:1" />
	<polygon
   id="polygon275"
   points="2578.9,2725.1 2560.9,2928.3 2664,2879.3  "
   style="fill:#ffffff;fill-opacity:1" />
	<path
   id="path277"
   d="M1211.3,659.8c0,10.3-20.6,126.3-20.6,126.3l112.1-25.8L1211.3,659.8z"
   style="fill:#ffffff;fill-opacity:1" />
	<path
   id="path279"
   d="M2158.4,2240.4c0,7.7-22.4,105.7-22.4,105.7h66.2L2158.4,2240.4z"
   style="fill:#ffffff;fill-opacity:1" />
	<polygon
   id="polygon281"
   points="1992.4,2239.8 1969.2,2367.4 2028.5,2367.4  "
   style="fill:#ffffff;fill-opacity:1" />
	<polygon
   id="polygon283"
   points="1690.1,2586.7 1660.4,2738.8 1761.7,2738.8  "
   style="fill:#ffffff;fill-opacity:1" />
	<polygon
   id="polygon285"
   points="954.2,69.9 924.2,285.9 1086.2,243.9  "
   style="fill:#ffffff;fill-opacity:1" />
	<polygon
   id="polygon287"
   points="1352.7,-146 1272.8,69.9 1396.5,43.1  "
   style="fill:#ffffff;fill-opacity:1" />
	<polygon
   id="polygon289"
   points="1133.6,-62.6 1086.2,97.2 1187.7,84.3  "
   style="fill:#ffffff;fill-opacity:1" />
	<polygon
   id="polygon291"
   points="1210.9,223.5 1159.4,383.4 1283.1,398.8  "
   style="fill:#ffffff;fill-opacity:1" />
	<polygon
   id="polygon293"
   points="1363,143.6 1321.8,285.9 1455.8,267.4  "
   style="fill:#ffffff;fill-opacity:1" />
	<path
   id="path295"
   d="M984.1,388.5c-2.6,7.7-46.4,201.1-46.4,201.1l148.5-30.9L984.1,388.5z"
   style="fill:#ffffff;fill-opacity:1" />
	<path
   id="path297"
   d="M1334.7,440.1c-2.6,7.7-51.6,165-51.6,165l131.5-30.9L1334.7,440.1z"
   style="fill:#ffffff;fill-opacity:1" />
	<path
   id="path299"
   d="M1571.9,11.4C1569.3,21.7,1528,246,1528,246l110.9-24.3L1571.9,11.4z"
   style="fill:#ffffff;fill-opacity:1" />
	<polygon
   id="polygon301"
   points="1468.7,337 1455.8,416.9 1528,416.9  "
   style="fill:#ffffff;fill-opacity:1" />
	<polygon
   id="polygon303"
   points="1626,285.9 1607.9,489.1 1711.1,440.1  "
   style="fill:#ffffff;fill-opacity:1" />
	<path
   id="path305"
   d="M1491.9,478.8c0,10.3-20.6,126.3-20.6,126.3l112.1-25.8L1491.9,478.8z"
   style="fill:#ffffff;fill-opacity:1" />
	<path
   id="path307"
   d="M1159.4,468.5c0,7.7-22.4,105.7-22.4,105.7h66.2L1159.4,468.5z"
   style="fill:#ffffff;fill-opacity:1" />
	<polygon
   id="polygon309"
   points="816.5,376.9 793.3,504.5 852.6,504.5  "
   style="fill:#ffffff;fill-opacity:1" />
	<polygon
   id="polygon311"
   points="852.6,589.6 822.9,741.7 924.2,741.7  "
   style="fill:#ffffff;fill-opacity:1" />
	<polygon
   id="polygon313"
   points="1461.8,667 1431.8,882.9 1593.8,840.9  "
   style="fill:#ffffff;fill-opacity:1" />
	<polygon
   id="polygon315"
   points="1352.7,2654 1272.8,2869.9 1396.5,2843.1  "
   style="fill:#ffffff;fill-opacity:1" />
	<polygon
   id="polygon317"
   points="1133.6,2737.4 1086.2,2897.2 1187.7,2884.3  "
   style="fill:#ffffff;fill-opacity:1" />
	<polygon
   id="polygon319"
   points="1850.1,874.6 1798.6,1034.4 1922.3,1049.9  "
   style="fill:#ffffff;fill-opacity:1" />
	<polygon
   id="polygon321"
   points="2002.2,794.7 1961,937 2095,918.4  "
   style="fill:#ffffff;fill-opacity:1" />
	<path
   id="path323"
   d="M1623.3,1039.6c-2.6,7.7-46.4,201.1-46.4,201.1l148.5-30.9L1623.3,1039.6z"
   style="fill:#ffffff;fill-opacity:1" />
	<path
   id="path325"
   d="M1973.9,1091.2c-2.6,7.7-51.6,165-51.6,165l131.5-30.9L1973.9,1091.2z"
   style="fill:#ffffff;fill-opacity:1" />
	<path
   id="path327"
   d="M1171.6,2419c-2.6,10.3-43.8,234.6-43.8,234.6l110.9-24.3L1171.6,2419z"
   style="fill:#ffffff;fill-opacity:1" />
	<polygon
   id="polygon329"
   points="1505.3,2662.5 1492.4,2742.5 1564.6,2742.5  "
   style="fill:#ffffff;fill-opacity:1" />
	<polygon
   id="polygon331"
   points="1470.9,2397.4 1452.8,2600.6 1555.9,2551.6  "
   style="fill:#ffffff;fill-opacity:1" />
	<path
   id="path333"
   d="M2131.1,1129.8c0,10.3-20.6,126.3-20.6,126.3l112.1-25.8L2131.1,1129.8z"
   style="fill:#ffffff;fill-opacity:1" />
	<path
   id="path335"
   d="M1798.6,1119.5c0,7.7-22.4,105.7-22.4,105.7h66.2L1798.6,1119.5z"
   style="fill:#ffffff;fill-opacity:1" />
	<polygon
   id="polygon337"
   points="1455.7,1028 1432.5,1155.6 1491.8,1155.6  "
   style="fill:#ffffff;fill-opacity:1" />
	<polygon
   id="polygon339"
   points="1491.8,1240.7 1462.1,1392.8 1563.4,1392.8  "
   style="fill:#ffffff;fill-opacity:1" />
	<polygon
   id="polygon341"
   points="1239.3,1612.7 1221.2,1815.9 1324.4,1766.9  "
   style="fill:#ffffff;fill-opacity:1" />
	<polygon
   id="polygon343"
   points="832,1205.8 780.5,1365.6 904.2,1381.1  "
   style="fill:#ffffff;fill-opacity:1" />
	<path
   id="path345"
   d="M955.8,1422.3c-2.6,7.7-51.6,165-51.6,165l131.5-30.9L955.8,1422.3z"
   style="fill:#ffffff;fill-opacity:1" />
	<polygon
   id="polygon347"
   points="1089.8,1319.2 1076.9,1399.1 1149.1,1399.1  "
   style="fill:#ffffff;fill-opacity:1" />
	<path
   id="path349"
   d="M1113,1461c0,10.3-20.6,126.3-20.6,126.3l112.1-25.8L1113,1461z"
   style="fill:#ffffff;fill-opacity:1" />
	<path
   id="path351"
   d="M780.5,1450.7c0,7.7-22.4,105.7-22.4,105.7h66.2L780.5,1450.7z"
   style="fill:#ffffff;fill-opacity:1" />
	<polygon
   id="polygon353"
   points="1106.4,1703.9 1026.5,1919.9 1150.2,1893  "
   style="fill:#ffffff;fill-opacity:1" />
	<polygon
   id="polygon355"
   points="887.3,1787.3 839.9,1947.2 941.4,1934.3  "
   style="fill:#ffffff;fill-opacity:1" />
	<path
   id="path357"
   d="M959.2,1651.1c0,7.7-22.4,105.7-22.4,105.7h66.2L959.2,1651.1z"
   style="fill:#ffffff;fill-opacity:1" />
	<polygon
   id="polygon359"
   points="793.2,1650.5 770,1778.1 829.3,1778.1  "
   style="fill:#ffffff;fill-opacity:1" />
	<polygon
   id="polygon361"
   points="293.8,2126.8 213.9,2342.8 337.7,2316  "
   style="fill:#ffffff;fill-opacity:1" />
	<polygon
   id="polygon363"
   points="74.7,2210.3 27.3,2370.1 128.9,2357.2  "
   style="fill:#ffffff;fill-opacity:1" />
	<polygon
   id="polygon365"
   points="142.2,2376.2 112.2,2592.2 274.2,2550.2  "
   style="fill:#ffffff;fill-opacity:1" />
	<polygon
   id="polygon367"
   points="1181.3,2253.1 1168.4,2333 1240.6,2333  "
   style="fill:#ffffff;fill-opacity:1" />
	<path
   id="path369"
   d="M1066.2,2293.2c0,7.7-22.4,105.7-22.4,105.7h66.2L1066.2,2293.2z"
   style="fill:#ffffff;fill-opacity:1" />
	<polygon
   id="polygon371"
   points="1851.4,1788.9 1810.1,1931.2 1944.2,1912.6  "
   style="fill:#ffffff;fill-opacity:1" />
	<polygon
   id="polygon373"
   points="1639.4,1754.5 1609.8,1906.6 1711.1,1906.6  "
   style="fill:#ffffff;fill-opacity:1" />
	<path
   id="path375"
   d="M1417.8,1594.8c0,7.7-22.4,105.7-22.4,105.7h66.2L1417.8,1594.8z"
   style="fill:#ffffff;fill-opacity:1" />
	<polygon
   id="polygon377"
   points="1710.1,1273.3 1686.9,1400.9 1746.2,1400.9  "
   style="fill:#ffffff;fill-opacity:1" />
	<polygon
   id="polygon379"
   points="1839.4,682.5 1809.8,834.6 1911.1,834.6  "
   style="fill:#ffffff;fill-opacity:1" />
	<polygon
   id="polygon381"
   points="2252.1,1311.2 2222.1,1527.2 2384,1485.2  "
   style="fill:#ffffff;fill-opacity:1" />
	<polygon
   id="polygon383"
   points="546.2,1273.1 516.2,1489.1 678.1,1447.1  "
   style="fill:#ffffff;fill-opacity:1" />
	<polygon
   id="polygon385"
   points="1010.5,1126.9 969.2,1269.1 1103.3,1250.6  "
   style="fill:#ffffff;fill-opacity:1" />
	<polygon
   id="polygon387"
   points="1671.3,826 1630.1,968.3 1764.1,949.8  "
   style="fill:#ffffff;fill-opacity:1" />
	<polygon
   id="polygon389"
   points="1524.6,918.3 1511.7,998.2 1583.9,998.2  "
   style="fill:#ffffff;fill-opacity:1" />
	<path
   id="path391"
   d="M1646.2,610.2c-2.6,7.7-51.6,165-51.6,165l131.5-30.9L1646.2,610.2z"
   style="fill:#ffffff;fill-opacity:1" />
</g>
</svg>
