<?xml version="1.0" encoding="UTF-8" standalone="no"?><!-- Generator: Gravit.io --><svg xmlns="http://www.w3.org/2000/svg" xmlns:xlink="http://www.w3.org/1999/xlink" style="isolation:isolate" viewBox="188.898 46 105.767 92.96" width="105.767pt" height="92.96pt"><g><circle vector-effect="non-scaling-stroke" cx="247.9789751872556" cy="67.69058295964129" r="3.098654708520172" fill="rgb(239,99,98)"/><circle vector-effect="non-scaling-stroke" cx="260.3735940213363" cy="67.69058295964129" r="3.0986547085202005" fill="rgb(239,99,98)"/><circle vector-effect="non-scaling-stroke" cx="272.76821285541706" cy="67.69058295964129" r="3.0986547085202005" fill="rgb(239,99,98)"/><path d=" M 258.558 138.96 C 263.66 138.96 267.81 134.789 267.81 129.664 L 267.81 117.269 C 267.81 115.936 266.958 114.753 265.694 114.33 L 247.146 108.133 C 246.238 107.83 245.241 107.963 244.445 108.493 L 236.557 113.752 C 228.092 109.735 218.087 99.819 214.108 91.504 L 219.364 83.619 C 219.895 82.823 220.028 81.826 219.725 80.918 L 213.528 62.37 C 213.105 61.106 211.922 60.254 210.589 60.254 L 198.194 60.254 C 193.068 60.254 188.898 64.404 188.898 69.506 C 188.898 86.626 196.683 104.197 210.256 117.714 C 223.814 131.216 241.42 138.96 258.558 138.96 Z  M 198.194 66.451 L 208.357 66.451 L 213.366 81.444 L 208.01 89.477 C 207.444 90.326 207.333 91.4 207.712 92.347 C 209.772 97.498 213.896 103.292 219.323 108.661 C 224.714 113.995 230.536 118.074 235.717 120.146 C 236.664 120.525 237.738 120.413 238.587 119.847 L 246.621 114.491 L 261.613 119.501 L 261.613 129.664 C 261.613 131.401 260.271 132.762 258.558 132.762 C 225.937 132.762 195.095 102.021 195.095 69.506 C 195.095 67.793 196.456 66.451 198.194 66.451 L 198.194 66.451 Z " fill="rgb(239,99,98)"/><path d=" M 246.793 101.54 C 247.951 102.02 249.284 101.754 250.17 100.868 L 261.657 89.381 L 272.768 89.381 C 284.842 89.381 294.665 79.651 294.665 67.691 C 294.665 55.73 284.842 46 272.768 46 L 247.979 46 C 236.019 46 226.288 55.73 226.288 67.691 C 226.288 78.599 234.383 87.652 244.88 89.161 L 244.88 98.677 C 244.88 99.93 245.635 101.06 246.793 101.54 L 246.793 101.54 Z  M 232.486 67.691 C 232.486 59.148 239.436 52.197 247.979 52.197 L 272.768 52.197 C 281.425 52.197 288.468 59.148 288.468 67.691 C 288.468 76.234 281.425 83.184 272.768 83.184 L 260.374 83.184 C 259.552 83.184 258.764 83.51 258.183 84.091 L 251.078 91.196 L 251.078 86.283 C 251.078 84.571 249.69 83.184 247.979 83.184 C 239.436 83.184 232.486 76.234 232.486 67.691 Z " fill="rgb(239,99,98)"/></g></svg>