<?xml version="1.0" encoding="UTF-8" standalone="no"?><!-- Generator: Gravit.io --><svg xmlns="http://www.w3.org/2000/svg" xmlns:xlink="http://www.w3.org/1999/xlink" style="isolation:isolate" viewBox="39.482 211.778 114.412 92.96" width="114.412pt" height="92.96pt"><g><g><g><path d=" M 153.894 222.783 C 149.639 224.649 145.106 225.886 140.379 226.487 C 145.241 223.584 148.953 219.022 150.697 213.523 C 146.164 216.226 141.158 218.135 135.824 219.2 C 131.519 214.617 125.384 211.778 118.691 211.778 C 105.705 211.778 95.251 222.318 95.251 235.24 C 95.251 237.099 95.408 238.886 95.794 240.588 C 76.294 239.637 59.039 230.291 47.448 216.054 C 45.424 219.565 44.237 223.584 44.237 227.91 C 44.237 236.033 48.42 243.234 54.656 247.403 C 50.887 247.332 47.191 246.237 44.058 244.514 C 44.058 244.586 44.058 244.679 44.058 244.772 C 44.058 256.17 52.189 265.637 62.851 267.818 C 60.941 268.34 58.861 268.591 56.701 268.591 C 55.199 268.591 53.683 268.505 52.26 268.19 C 55.299 277.479 63.923 284.308 74.177 284.53 C 66.197 290.772 56.065 294.534 45.095 294.534 C 43.172 294.534 41.327 294.448 39.482 294.212 C 49.872 300.912 62.186 304.738 75.465 304.738 C 118.626 304.738 142.224 268.984 142.224 237.993 C 142.224 236.956 142.188 235.955 142.138 234.961 C 146.793 231.657 150.705 227.531 153.894 222.783 Z " fill="rgb(251,173,49)"/></g></g></g></svg>