<?xml version="1.0" encoding="UTF-8" standalone="no"?><!-- Generator: Gravit.io --><svg xmlns="http://www.w3.org/2000/svg" xmlns:xlink="http://www.w3.org/1999/xlink" style="isolation:isolate" viewBox="450.734 211.778 131.239 92.96" width="131.239pt" height="92.96pt"><path d=" M 579.069 225.06 L 579.233 226.132 C 577.648 220.505 573.366 216.164 567.925 214.583 L 567.81 214.556 C 557.579 211.778 516.409 211.778 516.409 211.778 C 516.409 211.778 475.343 211.723 465.008 214.556 C 459.463 216.164 455.176 220.505 453.618 226.017 L 453.59 226.132 C 449.768 246.097 449.741 270.086 453.76 291.461 L 453.59 290.378 C 455.176 296.005 459.458 300.347 464.899 301.927 L 465.013 301.954 C 475.233 304.738 516.415 304.738 516.415 304.738 C 516.415 304.738 557.475 304.738 567.816 301.954 C 573.366 300.347 577.653 296.005 579.211 290.493 L 579.239 290.378 C 580.978 281.093 581.973 270.408 581.973 259.494 C 581.973 259.095 581.973 258.69 581.967 258.285 C 581.973 257.913 581.973 257.47 581.973 257.028 C 581.973 246.108 580.978 235.423 579.069 225.06 Z  M 503.274 278.222 L 503.274 238.343 L 537.538 258.313 L 503.274 278.222 Z " fill="rgb(251,173,49)"/></svg>